<?xml version="1.0" encoding="UTF-8" standalone="no"?>
<!-- Created with Inkscape (http://www.inkscape.org/) -->

<svg
   version="1.1"
   id="svg1"
   width="600"
   height="600"
   viewBox="0 0 599.99999 600"
   sodipodi:docname="4.svg"
   inkscape:version="1.3.2 (091e20e, 2023-11-25, custom)"
   xmlns:inkscape="http://www.inkscape.org/namespaces/inkscape"
   xmlns:sodipodi="http://sodipodi.sourceforge.net/DTD/sodipodi-0.dtd"
   xmlns:xlink="http://www.w3.org/1999/xlink"
   xmlns="http://www.w3.org/2000/svg"
   xmlns:svg="http://www.w3.org/2000/svg">
  <defs
     id="defs1">
    <color-profile
       name="Agfa-:-Swop-Standard"
       xlink:href="file:///C:/WINDOWS/system32/spool/drivers/color/RSWOP.icm"
       id="color-profile1" />
    <color-profile
       name="Apple-RGB"
       xlink:href="file:///C:/WINDOWS/system32/spool/drivers/color/AppleRGB.icc"
       id="color-profile2" />
    <linearGradient
       id="swatch4"
       inkscape:swatch="solid">
      <stop
         style="stop-color:#7574c2;stop-opacity:1;"
         offset="0"
         id="stop4" />
    </linearGradient>
    <linearGradient
       inkscape:collect="always"
       xlink:href="#swatch4"
       id="linearGradient4"
       x1="186.17809"
       y1="404.55893"
       x2="792.98273"
       y2="404.55893"
       gradientUnits="userSpaceOnUse" />
  </defs>
  <sodipodi:namedview
     id="namedview1"
     pagecolor="#ffffff"
     bordercolor="#000000"
     borderopacity="0.25"
     inkscape:showpageshadow="2"
     inkscape:pageopacity="0.0"
     inkscape:pagecheckerboard="0"
     inkscape:deskcolor="#d1d1d1"
     inkscape:zoom="0.80175781"
     inkscape:cx="225.13033"
     inkscape:cy="284.99878"
     inkscape:window-width="1920"
     inkscape:window-height="1017"
     inkscape:window-x="-8"
     inkscape:window-y="-8"
     inkscape:window-maximized="1"
     inkscape:current-layer="g1"
     showgrid="true">
    <inkscape:grid
       id="grid4"
       units="px"
       originx="-212.0341"
       originy="-228.83859"
       spacingx="1"
       spacingy="1"
       empcolor="#0099e5"
       empopacity="0.30196078"
       color="#0099e5"
       opacity="0.14901961"
       empspacing="5"
       dotted="false"
       gridanglex="30"
       gridanglez="30"
       visible="true" />
  </sodipodi:namedview>
  <g
     inkscape:groupmode="layer"
     inkscape:label="Image"
     id="g1"
     transform="translate(-212.03411,-228.8386)">
    <g
       id="g5"
       transform="translate(0,18.708892)">
      <g
         id="g3"
         transform="matrix(0.89722136,0,0,0.89722136,72.73804,149.021)">
        <path
           style="fill:#ffffff;fill-opacity:1;stroke:none"
           d="m 725,497 h -1 l 5,-26 -8,17 h -1 c 2.55554,-18.97809 5.80566,-37.70172 4.96063,-57 C 722.41437,372.85034 698.58246,315.86639 653,278.57562 636.81769,265.33691 615.14691,251.84998 594,249 v -1 c 29.29803,0.0808 51.43359,14.32275 76,28 C 609.35962,223.06366 527.74823,229.79443 461,267.87268 442.31927,278.5296 429.03455,293.91046 412,306 c 6.61746,-18.07458 24.78366,-34.47888 40,-45.42053 30.40347,-21.86225 69.21893,-36.01032 107,-35.57562 18.21252,0.20953 35.15649,4.3728 53,6.99615 v -1 c -61.81384,-16.86542 -127.73886,-14.29724 -180,27.4491 -92.82312,74.14734 -90.40128,229.30951 11,294.6867 40.55228,26.14557 96.30286,32.90021 140,10.89429 C 624.24725,543.25793 650.1142,490.17334 621.08716,449 610.36902,433.79694 592.89966,422.86694 574,422.03937 548.62799,420.92841 529.37988,440.04077 536,465 h 1 c 0.25714,-30.68103 46.05481,-21.26184 37.77545,5 -7.24908,22.99377 -35.99914,21.95306 -51.77466,9.48224 C 509.32172,468.6687 506,452.47003 506,436 h -1 l -5,20 h -2 c 0,-11.67462 0.26572,-23.1897 5.3233,-34 C 523.41687,379.05127 579.68152,375.07758 617,395.30865 675.62177,427.08868 690.34589,508.58087 658,564 c -8.93201,2.50354 -18.80298,16.87091 -26,22.99615 -15.19025,12.92811 -34.65131,24.7118 -54,30.00385 v -1 c 45.78741,-28.12463 79,-66.43896 79,-122 h -1 C 648.8844,550.30273 597.60974,598.53064 540,600.96063 503.90848,602.48297 461.77145,584.51001 432,565.56409 379.72079,532.29456 342.77646,473.50079 340.03937,411 339.06696,388.79486 344.82291,369.51215 348,348 h -1 c -4.10739,11.28693 -10.71823,21.45398 -14.48148,33 -9.182,28.17126 -8.2221,57.91071 0.50693,86 5.41095,17.41193 17.0148,32.81653 21.97455,50 h -1 C 344.2084,501.27667 332.79053,488.25592 325.42749,471 300.40784,412.36432 307.08429,348.44275 331,291 319.78671,304.54553 312.84018,322.47949 307.33334,339 292.2977,384.10699 292.75177,428.60059 299,475 h -1 c -7.69055,-22.73273 -13,-43.81482 -13,-68 h -1 c 0,21.04803 0.96155,40.17542 5,61 -10.45432,-12.67712 -11.86743,-35.41827 -14.80402,-51 -1.23474,-6.55151 -4.61102,-13.59613 -5.13812,-20.01465 C 263.76465,332.5307 304.62933,262.44519 352,222.42438 468.72626,123.80896 654.32507,159.15637 723.24689,297 c 10.08679,20.17365 18.41266,41.66583 22.16668,64 C 753.64722,409.98492 743.7312,452.01038 725,497 M 351,295 h 1 c 33.07129,-59.40143 96.06876,-91.13092 160,-103 -12.26553,-5.14697 -36.51828,0.77563 -49,4.15125 C 416.54501,208.71484 364.92245,246.67194 351,295 m 262,-63 1,1 -1,-1 m -17,54 v 1 c -41.95044,-11.81653 -88.26422,-0.85498 -126,19 27.3056,-38.73773 87.57275,-38.18713 126,-20 m 74,-10 2,2 -2,-2 m -339,13 1,1 -1,-1 m 338,60 C 658.52716,341.70947 649.34326,333.45807 638,327.30865 611.27167,312.81873 578.18793,307 548,307 c 7.07141,-4.44305 16.92804,-4.32019 25,-5.28552 33.82977,-4.04584 79.94507,16.29712 96,47.28552 m -228,-44 -33,56 h -1 c 5.55991,-21.43469 15.28214,-42.81482 34,-56 m 164,60 c -49.50531,-19.09674 -105.27759,-28.79041 -144.83023,15 -6.88355,7.62103 -13.1832,15.85663 -17.91129,25 -5.68887,11.0014 -9.84991,23.61829 -11.08795,36 -2.17566,21.75897 5.25379,40.5733 10.82947,61 h -1 c -22.42746,-27.98889 -19.85959,-60.94714 -15,-94 h -1 c -2.88626,10.01892 -8.33667,18.37958 -9.7168,29 -2.79455,21.50464 6.06809,37.91553 10.7168,58 -7.07181,-6.53339 -11.03036,-18.01367 -13.99924,-27 -10.40097,-31.48199 -5.33926,-66.90869 13.71991,-94 C 457.45743,328.88843 518.19415,318.19012 567,339.15045 580.16577,344.80469 596.47253,353.14404 605,365 m 16,-28 c 20.03223,11.69214 36.71832,22.80786 48,44 L 635,348.26544 621,337 m -272,8 -1,3 h 1 v -3 m 161,34 v 1 c -20.36078,13.73785 -33.46487,31.84271 -41,55 -9.64612,-24.31702 20.46994,-51.24805 41,-56 m 160,3 -1,1 1,-1 m -384.66666,18.66669 0.33332,0.66662 -0.33332,-0.66662 M 426,407 l 1,1 -1,-1 m -219,25 c 7.15147,25.20117 16.22435,52.00415 30.74536,74 6.56902,9.95044 13.28099,19.78271 20.8696,29 3.98935,4.84552 9.64981,8.81787 11.38504,15 l 6,5 C 244.87088,537.00952 224.35913,501.07751 213.33333,468 210.20343,458.61029 202.96173,441.62738 207,432 m 299,2 1,1 -1,-1 m -53,11 c 2.13498,26.13885 21.01862,42.15198 35,62 -17.24472,-8.06256 -29.05429,-23.81805 -33.84412,-42 -1.57302,-5.97119 -3.62219,-14.12244 -1.15588,-20 m 84,20 1,1 -1,-1 m 192.33331,4.66669 0.33338,0.66662 -0.33338,-0.66662 M 428,497 l -1,1 1,-1 m 311,54 c -10.23553,35.5318 -39.91437,68.94934 -71,87.60034 -11.00781,6.60449 -23.12701,13.50562 -36,15.39966 v -1 c 31.02966,-12.98743 61.37939,-44.52222 82.38501,-70 8.45422,-10.25415 15.43555,-22.49438 24.61499,-32 m -462,5 -1,1 1,-1 m 460,28 -1,1 1,-1 m -1,2 c -3.91357,10.32202 -13.00714,19.71179 -20.13037,28 C 693.8288,639.64539 666.14148,658.22363 635,671 v -1 L 697,625.8302 736,586 m -389,9 v 1 l -5,1 -4,-1 v -1 h 2 v -1 l -5,1 -15,-4 2,-1 v -1 h -3 c 7.48874,-3.94153 20.14514,4.64832 28,6 m -23.33334,-4.66663 0.66668,0.33326 -0.66668,-0.33326 M 349,596 l -1,1 1,-1 m -50,30.33337 c 0.77338,0 0.16019,0.49781 -0.33334,0.33326 L 299,626.33337 m 3,0.66663 38,10 v 1 l -37,-6 1,-2 -2,-3 m 2,2 v 1 c 1.96008,0.65332 2.55396,1 0,1 v 1 h 7 v -1 l -7,-2 m -3,1.33337 c 0.77344,0 0.1601,0.49775 -0.33334,0.33326 L 301,630.33337"
           id="path2"
           sodipodi:nodetypes="cccccsscccscssccsssssccssccccsscsccccsssccssccscscccccsssssccccscccccccccccccccscsccccccsssccccscssscccccccccccccccccccccccssccsccccccscccccccccccsccsccccccccscccccccccccccccccccccccccccccccccccccccccc" />
      </g>
      <g
         id="g2"
         sodipodi:insensitive="true"
         style="display:inline"
         transform="matrix(0.89722136,0,0,0.89722136,72.73804,149.021)">
        <path
           style="display:inline;fill:url(#linearGradient4)"
           d="m 449,689.86082 c -5.225,-0.47534 -14.9,-1.89543 -21.5,-3.15576 l -12,-2.2915 11.74385,-1.76696 C 449.92051,679.23471 479.59586,670.43469 494,662.85053 l 5.5,-2.8959 -4,0.48128 c -2.2,0.2647 -6.925,0.76311 -10.5,1.10758 -3.575,0.34447 -11.225,1.68646 -17,2.9822 C 427.968,673.50772 391.92638,678 359.89548,678 303.30134,678 250.58669,661.32843 222.04446,634.40313 213.00552,625.87625 201.13552,610.21817 196.09,600.16579 c -4.38153,-8.72948 -10.33432,-26.49223 -9.88825,-29.50588 0.23277,-1.57257 0.99171,-0.89593 3.45684,3.08197 4.25724,6.86977 17.07532,21.75621 23.3259,27.08983 27.48641,23.45417 56.47973,36.47587 96.51551,43.34779 11.0104,1.88987 16.82615,2.23819 38,2.27594 25.00847,0.0446 49.07969,-1.91093 43.43945,-3.52895 -7.50242,-2.15222 -19.88016,-3.91935 -30.43945,-4.34573 -22.35536,-0.90272 -50.7033,-7.619 -67.16013,-15.91179 C 286.89725,619.42245 267.61095,606 269.38876,606 c 0.4524,0 3.36251,0.65694 6.4669,1.45987 4.56324,1.18024 29.49553,5.54013 31.68161,5.54013 0.31369,0 -2.77545,-1.73138 -6.86476,-3.8475 C 292.32588,604.83331 275.56793,594.0533 266.5,587.1701 227.11111,557.27115 203.40981,513.23517 201.28311,466 c -0.55849,-12.40434 1.11028,-35.69992 2.6738,-37.32543 0.43667,-0.45398 1.11667,2.18815 1.51111,5.8714 2.28762,21.36143 14.16825,54.43772 26.726,74.40654 17.56797,27.93588 36.20195,46.13581 58.30598,56.94782 20.83927,10.19337 20.87811,10.1378 4.37913,-6.26594 -13.14465,-13.06878 -32.37571,-34.47634 -40.54559,-45.13439 -4.51035,-5.88399 -10.20616,-16.41802 -7.77108,-14.37211 2.40185,2.01799 16.68351,10.08971 16.09308,9.0955 -0.23628,-0.39787 -3.01773,-4.99839 -6.181,-10.22339 -21.56662,-35.62307 -31.99174,-70.06634 -33.14291,-109.5 -0.44924,-15.38857 -0.22074,-19.76009 1.575,-30.13191 3.93877,-22.74954 11.38459,-42.59071 23.96189,-63.85222 4.62055,-7.81088 5.07695,-7.57658 2.09899,1.07758 -4.47166,12.99494 -7.65424,37.72649 -6.4544,50.15655 l 0.74809,7.75 2.31596,-11 c 8.11463,-38.54161 28.96745,-79.20948 57.50511,-112.14839 10.04895,-11.59876 26.60414,-27.42738 37.20696,-35.57403 31.82469,-24.45241 71.6669,-42.91587 109.21077,-50.60986 23.42273,-4.80009 31.10264,-5.55279 55.55177,-5.44454 38.32035,0.16966 64.43588,4.81902 97.94823,17.43777 22.34609,8.4142 52.21387,25.42713 71.36251,40.64867 9.84423,7.82532 25.6177,23.19369 34.55649,33.66898 33.52774,39.29092 54.34469,84.57603 61.78215,134.40065 2.14314,14.35719 2.43115,54.34016 0.47989,66.62075 -2.57394,16.19959 -5.31949,28.84059 -8.65157,39.83344 -14.10694,46.5401 -46.1465,91.42021 -76.43005,107.06105 -7.77029,4.0132 -9.02969,5.0614 -11.47145,9.54772 -18.78139,34.50759 -69.50901,70.73466 -124.72391,89.07143 C 518.1161,689.23456 484.56941,693.09674 449,689.86082 Z m 76.76038,-47.24815 c 68.9128,-10.52084 111.44964,-36.83229 134.7531,-83.35243 9.56494,-19.09427 13.3637,-33.4772 14.19893,-53.76024 1.6827,-40.86325 -15.198,-79.27538 -44.71241,-101.74334 -8.35173,-6.35779 -28.36112,-16.05634 -38,-18.41859 -5.57251,-1.36569 -11.09797,-1.81952 -21.5,-1.76588 -16.65539,0.0859 -22.7917,1.46382 -36.5,8.19629 -7.53076,3.69854 -11.07448,6.22716 -17.09562,12.1986 -12.53555,12.43208 -17.75463,23.79488 -18.61727,40.53292 -0.63163,12.25548 0.68809,19.79759 5.08574,29.06462 12.79555,26.96369 47.74148,34.9877 66.24137,15.20982 5.48215,-5.86086 7.31586,-10.01479 7.98967,-18.09905 0.46421,-5.56952 0.19003,-6.80146 -2.79459,-12.55668 -2.2157,-4.27251 -4.71756,-7.39109 -7.57077,-9.43702 -12.05926,-8.64722 -30.02149,-0.93462 -30.31975,13.01865 l -0.0812,3.79966 -1.37367,-3 c -2.22596,-4.86131 -1.80533,-14.22944 0.89799,-20 12.5583,-26.80712 54.32686,-27.07558 78.92504,-0.50728 11.93318,12.88894 17.98525,28.92038 17.93458,47.50728 -0.0592,21.70823 -8.70114,40.21874 -26.84575,57.50177 C 588.41762,564.10717 567.39372,573.34006 540,576.15144 496.03318,580.6637 450.94156,564.82165 417.83808,533.23227 394.46098,510.9244 376.12324,479.37865 369.164,449.5 c -9.82647,-42.18876 -5.6827,-82.79137 12.83235,-125.73742 8.60703,-19.96418 19.86613,-36.52539 35.50365,-52.22292 26.74922,-26.85188 61.69217,-44.00622 99.80122,-48.99484 10.47092,-1.37068 45.44817,-2.0944 40.19878,-0.83175 -1.1,0.26458 -2.45,0.9534 -3,1.5307 -0.66971,0.70295 -0.65394,0.85783 0.0477,0.46892 0.57626,-0.3194 1.67581,-0.19256 2.44344,0.28186 0.8892,0.54956 -0.57972,0.86787 -4.04775,0.87714 -12.28824,0.0328 -39.97443,5.86544 -55.66021,11.72585 -37.47826,14.00237 -65.6587,36.53073 -85.5637,68.40246 l -2.18587,3.5 3.9832,-3.28438 c 16.79599,-13.84929 18.47806,-15.03971 37.38983,-26.46121 26.82114,-16.19824 54.66673,-27.78297 82.09336,-34.15366 16.08976,-3.73736 28.29121,-4.9156 44.9186,-4.33761 16.32473,0.56746 22.27713,2.02256 12.99838,3.17753 -13.94301,1.73554 -31.59779,5.91909 -42.08537,9.97272 l -6.33161,2.44727 10,0.088 c 18.24902,0.16057 36.71721,3.73214 55.32376,10.69908 21.49051,8.0468 48.8521,28.52167 64.76515,48.46421 26.47946,33.18457 41.41147,76.05114 41.41097,118.88193 -1.3e-4,10.79316 -2.83447,36.29433 -5.39982,48.58321 -0.79485,3.80761 -2.42316,13.89792 -3.61847,22.42292 -1.19531,8.525 -2.77748,18.13994 -3.51594,21.36654 l -1.34265,5.86653 2.52901,-2.36653 c 5.58788,-5.22891 21.00842,-29.60062 27.439,-43.36654 20.33582,-43.53284 24.3252,-97.48888 10.72094,-145 C 724.14302,283.28588 686.80384,233.37243 636.41564,201.94739 606.55578,183.32502 576.23081,172.38524 539.5,166.98491 507.12257,162.22463 466.44702,166.28262 432.25079,177.68461 370.7249,198.19909 320.80525,241.6909 292.43181,299.5 c -18.97955,38.66964 -26.39978,79.63914 -22.36783,123.5 3.95341,43.00637 22.13373,87.77524 48.91556,120.45413 11.31291,13.80389 33.26239,33.53682 45.6182,41.0115 19.1416,11.57976 28.79264,16.62593 41.18088,21.53195 4.55323,1.80319 8.12822,3.42891 7.94442,3.61272 -0.7279,0.72789 -34.09772,-5.92732 -48.35898,-9.64462 -20.0695,-5.23126 -64.95114,-19.73834 -69.21091,-22.37103 C 295.51892,577.20267 295,577.1218 295,577.41494 c 0,0.85457 13.93119,10.42381 20.72702,14.23724 3.42487,1.92184 6.69852,3.20286 7.27478,2.84671 0.57626,-0.35615 0.9241,-0.0874 0.77298,0.59732 -0.43437,1.96787 21.31496,11.3601 35.63079,15.38681 16.19346,4.55483 34.56809,7.6537 64.59443,10.89382 33.01366,3.56248 47.28847,4.63825 64.22074,4.8398 8.0964,0.0964 14.58214,0.31381 14.41275,0.4832 -0.16939,0.16939 -3.86872,0.7701 -8.22073,1.33491 C 453.95324,633.28564 445,634.00282 445,631.99281 c 0,-0.92099 -45.9127,-0.41106 -46.84579,0.52029 -1.20064,1.1984 30.5701,8.75131 46.0038,10.93657 13.97332,1.97848 66.70329,1.43762 81.60237,-0.837 z m -92.94788,-8.29578 c 0.72187,-0.28887 1.58438,-0.25335 1.91667,0.0789 0.33229,0.33229 -0.25834,0.56864 -1.3125,0.52522 -1.16495,-0.048 -1.4019,-0.28494 -0.60417,-0.60416 z M 492.5,621.4018 c -36.96361,-5.49519 -52.14157,-10.02613 -78.81009,-23.52645 -20.8723,-10.56611 -40.74751,-24.99524 -57.30953,-41.60592 -24.73689,-24.80957 -42.1523,-52.75486 -52.30811,-83.93518 -7.07346,-21.71689 -9.01996,-33.91186 -9.1178,-57.12369 -0.0434,-10.29747 0.14587,-19.39495 0.42061,-20.21662 0.27473,-0.82167 0.7408,-4.41894 1.0357,-7.99394 2.02757,-24.57975 13.46881,-60.61773 26.66809,-84 5.365,-9.50398 9.2783,-15.09309 6.35156,-9.07151 -3.70788,7.62871 -9.61939,24.84042 -12.8213,37.32991 -11.36395,44.32672 -9.44477,90.41873 5.46463,131.2416 4.2088,11.52395 20.40051,43.9 26.50603,53 11.1835,16.66849 30.44327,36.47067 48.92021,50.29793 19.47035,14.57069 50.72533,28.76448 75.5,34.28673 28.04149,6.25042 66.11093,4.38222 93.6608,-4.59628 22.15595,-7.22062 41.29898,-18.51343 55.19712,-32.56176 7.83446,-7.91912 16.79665,-19.69624 21.81239,-28.66342 4.45159,-7.9586 11.31464,-27.36144 11.3235,-32.0132 0.003,-1.7875 0.45619,-3.25 1.00619,-3.25 2.52243,0 -0.43697,23.49118 -4.4747,35.51936 -10.37941,30.91974 -34.15449,57.86477 -61.5253,69.7285 -26.46879,11.47276 -49.02443,16.40945 -78.5,17.18108 -8.8,0.23037 -17.35,0.21815 -19,-0.0271 z M 339.5,601 c -0.78218,-1.2656 0.54163,-1.2656 2.5,0 1.29269,0.8354 1.26629,0.97149 -0.19098,0.98469 C 340.87898,601.99311 339.83992,601.55 339.5,601 Z m -7.5,-2.45315 c -1.925,-0.74255 -4.35191,-1.62995 -5.39313,-1.97201 -1.04122,-0.34205 -1.64541,-0.86964 -1.34264,-1.17241 0.72729,-0.72728 10.73577,2.84538 10.73577,3.83229 0,0.91872 0.29762,0.9699 -4,-0.68787 z m 20,-306.01857 c 0,-1.33869 11.30415,-21.1703 16.54631,-29.02828 10.66113,-15.98099 26.93003,-31.90144 44.95369,-43.99087 21.00151,-14.08683 37.72373,-20.97734 63.04998,-25.98021 4.25774,-0.84106 32.66605,-2.64623 33.20247,-2.10981 0.24855,0.24856 -1.28157,0.73339 -3.40027,1.07741 -2.1187,0.34401 -9.33991,1.73174 -16.04713,3.08383 -50.11117,10.10177 -99.55336,43.55674 -132.67567,89.77474 -3.09616,4.3203 -5.62938,7.54824 -5.62938,7.17319 z m 240.26903,-66.22127 c 0.97297,-0.25354 2.32297,-0.23687 3,0.0371 0.67703,0.27393 -0.11903,0.48137 -1.76903,0.46099 -1.65,-0.0204 -2.20394,-0.2445 -1.23097,-0.49804 z m -30.50737,-5.01427 c 1.24391,-0.23919 3.04391,-0.23011 4,0.0202 0.95609,0.25029 -0.0617,0.446 -2.26166,0.4349 -2.2,-0.0111 -2.98225,-0.21589 -1.73834,-0.45508 z M 553.5,545.96114 c 11.92887,-1.70285 18.61513,-3.76732 29.42479,-9.0853 16.20678,-7.97319 26.98178,-19.66967 32.74392,-35.54418 2.43136,-6.69834 3.19303,-17.08257 1.82135,-24.83166 -0.94989,-5.36627 -6.65397,-17.17269 -10.38737,-21.5 l -3.01964,-3.5 0.95848,3.25 c 0.52716,1.7875 1.3834,4.62212 1.90276,6.29915 1.90993,6.16725 2.20081,16.34866 0.70491,24.67349 -1.79323,9.97955 -5.22066,17.73885 -11.45519,25.93328 -5.67275,7.45602 -9.44871,10.30346 -5.08074,3.83135 1.65884,-2.45793 2.75917,-4.88465 2.44517,-5.39271 -0.314,-0.50806 -0.0936,-1.08284 0.48979,-1.2773 0.58337,-0.19446 1.18538,-1.0204 1.33778,-1.83541 0.1524,-0.81502 0.83248,-3.43977 1.51127,-5.83279 1.65864,-5.84738 0.73947,-6.31751 -1.96956,-1.00738 -1.21649,2.38452 -5.93788,7.98683 -10.49198,12.44958 -20.52039,20.10876 -49.61439,26.91995 -80.92723,18.94585 -5.49532,-1.39944 -13.37032,-4.21131 -17.5,-6.24861 -9.9173,-4.89252 -10.07937,-4.9296 -6.00851,-1.37463 19.37814,16.92242 48.40539,25.62951 73.5,22.04727 z M 459.21912,526.25 c -12.65231,-14.79208 -22.33401,-34.95417 -26.29057,-54.75 -1.82548,-9.1334 -1.60914,-33.5602 0.37383,-42.20895 2.29201,-9.99667 7.74841,-23.10024 13.38455,-32.14306 14.02547,-22.50294 40.34935,-37.84977 75.07558,-43.76907 7.52192,-1.28216 13.24796,-1.50314 26.65851,-1.02879 9.39344,0.33225 18.86589,0.88951 21.04989,1.23834 5.43065,0.86738 28.14644,8.18709 32.876,10.59363 2.11579,1.07658 4.0202,1.78412 4.23201,1.57231 0.63126,-0.63126 -12.60326,-11.16471 -20.10667,-16.00304 C 564.06301,335.3015 543.09634,328.84667 518,328.67141 c -15.11479,-0.10555 -24.41944,1.2448 -37.16532,5.39368 -23.43667,7.62881 -43.93081,23.09063 -57.21688,43.16732 -27.82546,42.04729 -20.42544,99.89703 17.5991,137.5811 7.74942,7.68004 19.93472,17.18649 22.0295,17.18649 0.49002,0 -1.32226,-2.5875 -4.02728,-5.75 z m 25.98692,-22.80166 C 472.1872,491.66696 458.10059,468.39425 454.36781,452.5 c -2.50334,-10.65925 -3.01791,-11.4348 -2.58832,-3.90105 1.3856,24.29938 12.01403,43.21903 31.22051,55.57562 4.125,2.65384 7.68919,4.82522 7.92041,4.8253 0.23123,7e-5 -2.34024,-2.49812 -5.71437,-5.55153 z m -8.83789,-81.88566 c 1.50891,-4.36552 4.3138,-10.74532 6.23309,-14.17733 4.58197,-8.19332 14.99794,-19.34154 22.96534,-24.5798 3.50823,-2.30653 6.21603,-4.35628 6.01732,-4.55499 -0.89194,-0.89193 -16.5888,6.16121 -21.18901,9.52095 -18.91218,13.8124 -26.78507,38.5441 -19.80933,62.22849 l 1.91444,6.5 0.56234,-13.5 c 0.46501,-11.16351 1.03716,-14.87374 3.30581,-21.43732 z M 679.5518,404.80672 c -4.667,-16.26998 -16.0605,-35.26603 -28.63445,-47.74139 -7.27994,-7.22286 -23.19044,-17.55726 -32.45141,-21.07828 -3.51161,-1.33511 -3.06387,-0.64851 1.582,2.42598 2.22637,1.47334 5.91114,4.34564 8.18839,6.38288 2.27725,2.03725 3.75108,3.02909 3.27518,2.20409 -0.4759,-0.825 3.38106,2.775 8.57102,8 5.18996,5.225 9.34261,9.75723 9.22811,10.07162 -0.36338,0.99773 3.48769,3.79335 4.26517,3.09623 0.40966,-0.36732 0.42828,-0.11691 0.0414,0.55645 -0.4107,0.71479 1.55468,4.25219 4.72261,8.5 7.45914,10.0018 15.80204,23.80744 19.79787,32.76106 4.21729,9.44985 4.89664,6.96202 1.41413,-5.17864 z M 420.03267,337 c 4.91381,-8.6397 12.32275,-19.86422 18.81193,-28.5 2.47971,-3.3 4.2272,-5.775 3.8833,-5.5 -0.34389,0.275 -4.28716,4.1 -8.76282,8.5 -9.54735,9.38596 -15.89806,18.53071 -20.58247,29.63789 -2.90656,6.89171 -7.43124,21.97305 -7.35908,24.52872 0.0129,0.45837 2.21053,-4.11661 4.88353,-10.16661 2.673,-6.05 6.77952,-14.375 9.12561,-18.5 z m 248.81866,10.75 c -4.99427,-7.10389 -21.66134,-22.72234 -30.07014,-28.17828 -15.14924,-9.82938 -28.08619,-14.80497 -46.05098,-17.71136 -9.20146,-1.48863 -27.88784,-0.15931 -39.23021,2.79078 l -7,1.82067 12,0.79204 c 12.55583,0.82873 39.8997,5.41023 52.17827,8.74254 18.34169,4.9778 46.43867,20.90912 57.33883,32.51182 3.21472,3.42191 3.55787,3.10592 0.83423,-0.76821 z m -194.173,-44.2045 c 11.98929,-7.11427 37.2514,-15.47812 55.82167,-18.4816 20.89544,-3.37954 47.37886,-3.02176 60.98561,0.82388 3.84209,1.08588 7.11479,1.84516 7.27266,1.68729 0.15787,-0.15787 -2.89694,-1.71071 -6.78846,-3.45075 -32.60106,-14.57711 -72.00347,-13.54633 -98.46981,2.576 -8.6295,5.25678 -27.2768,20.18383 -25.32167,20.26984 0.37308,0.0164 3.29808,-1.52468 6.5,-3.42466 z M 756.01691,547.25 c 10.95991,-24.57707 19.17242,-47.82235 23.15465,-65.53858 1.09935,-4.89082 1.61345,-5.74382 3.31479,-5.5 1.76241,0.25257 1.97369,0.91242 1.69335,5.28858 -0.4365,6.81382 -3.82402,23.40985 -6.30178,30.8734 -3.27516,9.8655 -12.39293,27.4363 -19.13201,36.86917 -3.43525,4.80842 -6.53322,8.74592 -6.88438,8.75 -0.35116,0.004 1.51876,-4.83007 4.15538,-10.74257 z m 31.60033,-125.40285 c -0.32366,-5.69093 -0.8523,-20.18217 -1.17476,-32.20274 -0.32246,-12.02058 -0.80961,-22.43756 -1.08256,-23.14885 -0.27295,-0.71129 -0.0328,-1.5797 0.53368,-1.9298 2.43819,-1.50688 7.06658,20.89124 7.08904,34.3059 0.0177,10.59957 -2.4565,30.95001 -3.94842,32.47549 -0.45568,0.46593 -1.09333,-3.80907 -1.41698,-9.5 z m -590.66683,-42.4069 c -0.9256,-1.11528 -1.02487,-2.32635 -0.34836,-4.25 0.78175,-2.22289 1.54996,-2.69025 4.42203,-2.69025 3.06693,0 3.51384,0.33069 3.79818,2.81047 0.17724,1.54576 -0.21536,3.45826 -0.87245,4.25 -1.5774,1.90066 -5.37637,1.83541 -6.9994,-0.12022 z M 783.06837,326.75 C 782.22963,324.61068 776.3091,311.99264 767.9363,294.5 758.03079,273.80518 744.92359,252.08378 728.18603,228.6254 723.13371,221.54436 719,215.31496 719,214.78228 c 0,-1.36379 9.15662,6.38885 17.6493,14.94313 12.89864,12.9922 24.6531,29.80186 34.22549,48.9447 8.14047,16.2793 17.34055,44.72038 15.78086,48.78487 -0.85703,2.23339 -2.56702,1.89734 -3.58728,-0.70498 z M 237.75,278.31067 c -2.43529,-0.6364 -2.23243,-2.00842 1.66235,-11.24331 6.65713,-15.78467 22.11695,-40.48489 35.16256,-56.17936 19.37048,-23.30359 45.65543,-44.79293 72.42509,-59.21135 17.91487,-9.64913 41.00116,-18.51187 25.64291,-9.84421 -3.13577,1.76972 -12.32574,7.77655 -20.42215,13.34851 C 304.93983,187.71974 273.34132,221.69414 248,267.23803 c -3.575,6.42506 -6.95,11.64774 -7.5,11.60595 -0.55,-0.0418 -1.7875,-0.28178 -2.75,-0.53331 z m 460.82143,-76.8821 c -1.81341,-1.81341 -2.02135,-4.71938 -0.53625,-7.49431 0.74205,-1.38652 2.1013,-1.93426 4.8,-1.93426 4.43699,0 6.16482,1.41398 6.16482,5.04501 0,5.08923 -6.84547,7.96666 -10.42857,4.38356 z m -22.40582,-21.02513 c -2.86738,-2.00839 -2.57156,-5.77433 0.48783,-6.21034 2.90296,-0.41371 5.63295,3.40326 4.26382,5.96151 -1.20736,2.25596 -1.83886,2.28903 -4.75165,0.24883 z M 644.48519,159.8967 C 634.08838,154.40949 630,151.7366 630,150.42661 c 0,-2.25227 2.01149,-1.73502 11.82258,3.04013 7.09623,3.45381 9.17742,4.92784 9.17742,6.5 0,2.58117 -1.52249,2.5648 -6.51481,-0.07 z M 396.5,143.50466 c 1.1,-0.91224 6.51057,-3.87404 12.02348,-6.58178 12.66623,-6.22117 26.55364,-9.81232 40.44495,-10.45866 L 459.5,125.97421 450,128.88366 c -5.225,1.6002 -19.175,5.71388 -31,9.14151 -11.825,3.42762 -22.175,6.43591 -23,6.68507 -0.92179,0.2784 -0.72905,-0.18632 0.5,-1.20558 z m 197,-5.05483 c -7.15,-1.89998 -21.51096,-5.59096 -31.91325,-8.20217 L 542.6735,125.5 l 6.41325,-0.30739 c 8.13764,-0.39004 20.35786,1.22422 32.40817,4.28103 10.65125,2.70191 26.99582,9.92331 26.02291,11.49751 -0.34972,0.56587 -0.72181,1.00733 -0.82685,0.98102 -0.10504,-0.0263 -6.04098,-1.60236 -13.19098,-3.50234 z m -90.83333,-13.1165 C 502.3,124.96667 502,123.40024 502,121.85239 c 0,-2.15046 0.57629,-2.95893 2.44316,-3.42748 3.1383,-0.78766 4.55684,0.12572 4.55684,2.93411 0,3.59488 -4.12453,6.18312 -6.33333,3.97431 z"
           id="path1"
           sodipodi:nodetypes="sscsscsssssssssssssssssssssssssssssssssscsssssssssssssssssssssssssssssscsssssssssssssssssscsssssscssssssscssssssssssssssssssssssssssssssssssssssssssssssssscssssssssssssssssssssssssssssssssssssssscssssssssssssssssssssssssssssssssssssssssssscsssssssssssssssssssssssssssscsssssssssssssssssssssssssssssssssssssssssssssssssssssssssssssssssssscsssssscssssssssss" />
      </g>
    </g>
  </g>
</svg>
